<svg width="105" height="100" viewBox="0 0 105 100" fill="none" xmlns="http://www.w3.org/2000/svg">
<path d="M26.5502 59.375H20.0723V53.125C20.0748 50.6394 21.0994 48.2562 22.9211 46.4986C24.7428 44.741 27.2129 43.7525 29.7892 43.75H45.984V50H29.7892C28.9304 50.0008 28.107 50.3303 27.4998 50.9162C26.8926 51.5021 26.5511 52.2965 26.5502 53.125V59.375Z" fill="#02489A"/>
<path d="M39.5066 40.625C36.9442 40.625 34.4393 39.8919 32.3088 38.5184C30.1782 37.1449 28.5176 35.1926 27.537 32.9086C26.5564 30.6245 26.2998 28.1111 26.7997 25.6864C27.2996 23.2616 28.5336 21.0343 30.3455 19.2862C32.1574 17.538 34.4659 16.3475 36.9791 15.8652C39.4923 15.3829 42.0973 15.6304 44.4646 16.5765C46.832 17.5226 48.8554 19.1248 50.279 21.1804C51.7027 23.236 52.4625 25.6527 52.4625 28.125C52.4582 31.4389 51.0918 34.616 48.6631 36.9593C46.2343 39.3026 42.9414 40.6209 39.5066 40.625ZM39.5066 21.875C38.2254 21.875 36.973 22.2416 35.9077 22.9283C34.8424 23.6151 34.0121 24.5912 33.5218 25.7332C33.0315 26.8753 32.9032 28.1319 33.1532 29.3443C33.4031 30.5567 34.0201 31.6703 34.9261 32.5444C35.832 33.4185 36.9863 34.0138 38.2429 34.2549C39.4995 34.4961 40.802 34.3723 41.9856 33.8993C43.1693 33.4262 44.181 32.6251 44.8928 31.5973C45.6046 30.5695 45.9846 29.3611 45.9846 28.125C45.9829 26.4679 45.2998 24.8792 44.0853 23.7074C42.8709 22.5357 41.2242 21.8767 39.5066 21.875Z" fill="#02489A"/>
<path d="M65.4178 62.5C62.8553 62.5 60.3505 61.7669 58.2199 60.3934C56.0893 59.0199 54.4287 57.0676 53.4481 54.7836C52.4675 52.4995 52.211 49.9861 52.7109 47.5614C53.2108 45.1366 54.4447 42.9093 56.2566 41.1612C58.0685 39.413 60.377 38.2225 62.8902 37.7402C65.4034 37.2579 68.0084 37.5054 70.3758 38.4515C72.7431 39.3976 74.7666 40.9998 76.1902 43.0554C77.6138 45.111 78.3736 47.5277 78.3736 50C78.3693 53.3139 77.003 56.491 74.5742 58.8343C72.1454 61.1776 68.8526 62.4959 65.4178 62.5ZM65.4178 43.75C64.1366 43.75 62.8841 44.1166 61.8188 44.8033C60.7535 45.4901 59.9232 46.4662 59.433 47.6082C58.9427 48.7503 58.8144 50.0069 59.0643 51.2193C59.3143 52.4317 59.9312 53.5453 60.8372 54.4194C61.7431 55.2935 62.8974 55.8888 64.154 56.1299C65.4106 56.3711 66.7131 56.2473 67.8968 55.7743C69.0805 55.3012 70.0922 54.5001 70.804 53.4723C71.5158 52.4445 71.8957 51.2361 71.8957 50C71.894 48.3429 71.2109 46.7542 69.9965 45.5824C68.782 44.4107 67.1353 43.7517 65.4178 43.75Z" fill="#02489A"/>
<path d="M84.8519 81.25H78.374V75C78.3732 74.1715 78.0316 73.3771 77.4244 72.7912C76.8172 72.2053 75.9938 71.8758 75.135 71.875H55.7013C54.8425 71.8758 54.0192 72.2053 53.4119 72.7912C52.8047 73.3771 52.4632 74.1715 52.4623 75V81.25H45.9844V75C45.9869 72.5144 47.0115 70.1312 48.8332 68.3736C50.6549 66.616 53.125 65.6275 55.7013 65.625H75.135C77.7113 65.6275 80.1814 66.616 82.0031 68.3736C83.8248 70.1312 84.8494 72.5144 84.8519 75V81.25Z" fill="#02489A"/>
<path d="M26.55 93.75H13.5941C11.8766 93.7483 10.2299 93.0893 9.01545 91.9176C7.80097 90.7458 7.11793 89.1571 7.11621 87.5V12.5C7.11793 10.8429 7.80097 9.25415 9.01545 8.08241C10.2299 6.91067 11.8766 6.25165 13.5941 6.25H26.55V12.5H13.5941V87.5H26.55V93.75Z" fill="#02489A"/>
<path d="M91.3299 93.75H78.374V87.5H91.3299V12.5H78.374V6.25H91.3299C93.0474 6.25165 94.6941 6.91067 95.9086 8.08241C97.123 9.25415 97.8061 10.8429 97.8078 12.5V87.5C97.8061 89.1571 97.123 90.7458 95.9086 91.9176C94.6941 93.0893 93.0474 93.7483 91.3299 93.75Z" fill="#02489A"/>
</svg>
