<svg width="93" height="110" viewBox="0 0 93 110" fill="none" xmlns="http://www.w3.org/2000/svg">
<g clip-path="url(#clip0_943_849)">
<path d="M49.8697 52.4118C52.7444 52.4118 55.5013 53.5025 57.534 55.4441C59.5667 57.3856 60.7086 60.0189 60.7086 62.7647H49.8697C46.9951 62.7647 44.2382 63.8555 42.2055 65.797C40.1728 67.7386 39.0308 70.3719 39.0308 73.1176V88.1139C36.5054 88.4659 33.7902 88.6471 30.9017 88.6471C12.4105 88.6471 1.09473 81.1619 1.09473 70.5294V62.7647C1.09473 60.0189 2.23668 57.3856 4.26936 55.4441C6.30205 53.5025 9.05896 52.4118 11.9336 52.4118H49.8697ZM62.7246 53.2555C64.8599 55.8852 66.1281 59.1826 66.1281 62.7647H87.8058C87.8058 60.0189 86.6639 57.3856 84.6312 55.4441C82.5985 53.5025 79.8416 52.4118 76.9669 52.4118H61.9822L62.7246 53.2555ZM30.9017 11C33.3926 11 35.8591 11.4686 38.1604 12.3791C40.4617 13.2896 42.5528 14.6242 44.3141 16.3065C46.0755 17.9889 47.4726 19.9862 48.4259 22.1843C49.3791 24.3825 49.8697 26.7384 49.8697 29.1176C49.8697 31.4969 49.3791 33.8528 48.4259 36.051C47.4726 38.2491 46.0755 40.2464 44.3141 41.9288C42.5528 43.6111 40.4617 44.9457 38.1604 45.8562C35.8591 46.7667 33.3926 47.2353 30.9017 47.2353C25.871 47.2353 21.0464 45.3265 17.4892 41.9288C13.932 38.531 11.9336 33.9227 11.9336 29.1176C11.9336 24.3125 13.932 19.7043 17.4892 16.3065C21.0464 12.9088 25.871 11 30.9017 11ZM68.8378 21.3529C72.4311 21.3529 75.8772 22.7164 78.4181 25.1433C80.9589 27.5703 82.3864 30.8619 82.3864 34.2941C82.3864 37.7263 80.9589 41.018 78.4181 43.4449C75.8772 45.8719 72.4311 47.2353 68.8378 47.2353C65.2445 47.2353 61.7983 45.8719 59.2575 43.4449C56.7166 41.018 55.2892 37.7263 55.2892 34.2941C55.2892 30.8619 56.7166 27.5703 59.2575 25.1433C61.7983 22.7164 65.2445 21.3529 68.8378 21.3529ZM93.2253 75.7059V91.2353C93.2253 93.2946 92.3688 95.2696 90.8443 96.7258C89.3198 98.1819 87.2521 99 85.0961 99H52.5794C50.4235 99 48.3558 98.1819 46.8313 96.7258C45.3067 95.2696 44.4503 93.2946 44.4503 91.2353V75.7059C44.4503 73.6466 45.3067 71.6716 46.8313 70.2154C48.3558 68.7592 50.4235 67.9412 52.5794 67.9412H85.0961C87.2521 67.9412 89.3198 68.7592 90.8443 70.2154C92.3688 71.6716 93.2253 73.6466 93.2253 75.7059ZM85.0961 93.8235C85.0961 93.1371 85.3816 92.4788 85.8898 91.9934C86.3979 91.508 87.0872 91.2353 87.8058 91.2353V86.0588C85.6498 86.0588 83.5822 86.8769 82.0576 88.3331C80.5331 89.7892 79.6767 91.7642 79.6767 93.8235H85.0961ZM87.8058 75.7059C87.0872 75.7059 86.3979 75.4332 85.8898 74.9478C85.3816 74.4624 85.0961 73.8041 85.0961 73.1176H79.6767C79.6767 75.177 80.5331 77.152 82.0576 78.6081C83.5822 80.0643 85.6498 80.8824 87.8058 80.8824V75.7059ZM52.5794 73.1176C52.5794 73.8041 52.294 74.4624 51.7858 74.9478C51.2776 75.4332 50.5884 75.7059 49.8697 75.7059V80.8824C52.0257 80.8824 54.0934 80.0643 55.6179 78.6081C57.1424 77.152 57.9989 75.177 57.9989 73.1176H52.5794ZM49.8697 91.2353C50.5884 91.2353 51.2776 91.508 51.7858 91.9934C52.294 92.4788 52.5794 93.1371 52.5794 93.8235H57.9989C57.9989 91.7642 57.1424 89.7892 55.6179 88.3331C54.0934 86.8769 52.0257 86.0588 49.8697 86.0588V91.2353ZM68.8378 75.7059C66.6818 75.7059 64.6141 76.5239 63.0896 77.9801C61.5651 79.4363 60.7086 81.4113 60.7086 83.4706C60.7086 85.5299 61.5651 87.5049 63.0896 88.9611C64.6141 90.4172 66.6818 91.2353 68.8378 91.2353C70.9938 91.2353 73.0614 90.4172 74.586 88.9611C76.1105 87.5049 76.9669 85.5299 76.9669 83.4706C76.9669 81.4113 76.1105 79.4363 74.586 77.9801C73.0614 76.5239 70.9938 75.7059 68.8378 75.7059Z" fill="#02489A"/>
</g>
<defs>
<clipPath id="clip0_943_849">
<rect width="92.1703" height="110" fill="white" transform="translate(0.793945)"/>
</clipPath>
</defs>
</svg>
