<svg xmlns="http://www.w3.org/2000/svg" width="74.47" height="74.47" viewBox="0 0 74.47 74.47">
  <path id="Icon_awesome-plus-circle" data-name="Icon awesome-plus-circle" d="M37.8.563A37.235,37.235,0,1,0,75.033,37.8,37.229,37.229,0,0,0,37.8.563ZM59.418,42a1.807,1.807,0,0,1-1.8,1.8H43.8V57.616a1.807,1.807,0,0,1-1.8,1.8H33.594a1.807,1.807,0,0,1-1.8-1.8V43.8H17.979a1.807,1.807,0,0,1-1.8-1.8V33.594a1.807,1.807,0,0,1,1.8-1.8H31.792V17.979a1.807,1.807,0,0,1,1.8-1.8H42a1.807,1.807,0,0,1,1.8,1.8V31.792H57.616a1.807,1.807,0,0,1,1.8,1.8Z" transform="translate(-0.563 -0.563)" fill="#01357e"/>
</svg>
