<svg id="Group_23112" data-name="Group 23112" xmlns="http://www.w3.org/2000/svg" width="74.47" height="74.47" viewBox="0 0 74.47 74.47">
  <circle id="Ellipse_376" data-name="Ellipse 376" cx="37.235" cy="37.235" r="37.235" fill="#01357e"/>
  <path id="Icon_map-food" data-name="Icon map-food" d="M51.55,12.891,47.374,40.537H33.268L29.109,12.753H46.33l3.4-9.928,1.929.491L48.4,12.87l3.153.021ZM27.115,28.886s.527-3.585-6.787-3.585H8.679c-7.3,0-6.787,3.585-6.787,3.585H27.115ZM1.892,36.952s-.517,3.585,6.787,3.585h11.65c7.315,0,6.787-3.585,6.787-3.585H1.892ZM26.02,35.159a2.242,2.242,0,0,0,0-4.481H2.885a2.242,2.242,0,0,0,0,4.481H26.02Z" transform="translate(11.044 10.468)" fill="#fbf4f4"/>
</svg>
