<svg id="Group_23113" data-name="Group 23113" xmlns="http://www.w3.org/2000/svg" width="74.47" height="74.47" viewBox="0 0 74.47 74.47">
  <circle id="Ellipse_376" data-name="Ellipse 376" cx="37.235" cy="37.235" r="37.235" fill="#01357e"/>
  <path id="Icon_awesome-hotel" data-name="Icon awesome-hotel" d="M46.76,5.528A1.359,1.359,0,0,0,48.1,4.146V1.382A1.359,1.359,0,0,0,46.76,0H1.336A1.359,1.359,0,0,0,0,1.382V4.146A1.359,1.359,0,0,0,1.336,5.528H2.67V38.694H1.336A1.359,1.359,0,0,0,0,40.076V42.84a1.359,1.359,0,0,0,1.336,1.382h20.04v-6.91a1.364,1.364,0,0,1,1.336-1.382h2.672a1.364,1.364,0,0,1,1.336,1.382v6.91H46.76A1.359,1.359,0,0,0,48.1,42.84V40.076a1.359,1.359,0,0,0-1.336-1.382H45.424V5.528ZM21.376,9.4a1.17,1.17,0,0,1,1.069-1.106h3.206A1.17,1.17,0,0,1,26.72,9.4v3.317a1.17,1.17,0,0,1-1.069,1.106H22.445a1.17,1.17,0,0,1-1.069-1.106Zm0,8.292a1.17,1.17,0,0,1,1.069-1.106h3.206a1.17,1.17,0,0,1,1.069,1.106v3.317a1.17,1.17,0,0,1-1.069,1.106H22.445a1.17,1.17,0,0,1-1.069-1.106ZM10.688,9.4a1.17,1.17,0,0,1,1.069-1.106h3.206A1.17,1.17,0,0,1,16.032,9.4v3.317a1.17,1.17,0,0,1-1.069,1.106H11.757a1.17,1.17,0,0,1-1.069-1.106Zm4.275,12.714H11.757a1.17,1.17,0,0,1-1.069-1.106V17.689a1.17,1.17,0,0,1,1.069-1.106h3.206a1.17,1.17,0,0,1,1.069,1.106v3.317A1.17,1.17,0,0,1,14.963,22.111Zm1.069,11.056a8.157,8.157,0,0,1,8.016-8.292,8.157,8.157,0,0,1,8.016,8.292ZM37.408,21.006a1.17,1.17,0,0,1-1.069,1.106H33.133a1.17,1.17,0,0,1-1.069-1.106V17.689a1.17,1.17,0,0,1,1.069-1.106h3.206a1.17,1.17,0,0,1,1.069,1.106Zm0-8.292a1.17,1.17,0,0,1-1.069,1.106H33.133a1.17,1.17,0,0,1-1.069-1.106V9.4a1.17,1.17,0,0,1,1.069-1.106h3.206A1.17,1.17,0,0,1,37.408,9.4Z" transform="translate(13.333 14.954)" fill="#fcf6f6"/>
</svg>
