<svg id="Group_23103" data-name="Group 23103" xmlns="http://www.w3.org/2000/svg" width="74.47" height="74.47" viewBox="0 0 74.47 74.47">
  <path id="Path_14141" data-name="Path 14141" d="M37.235,0A37.235,37.235,0,1,1,0,37.235,37.235,37.235,0,0,1,37.235,0Z" fill="#01357e"/>
  <path id="Icon_awesome-comment-medical" data-name="Icon awesome-comment-medical" d="M21.993,2.25C9.847,2.25,0,10.1,0,19.793A15.462,15.462,0,0,0,4.9,30.82C3.819,35.064.232,38.855.189,38.9a.666.666,0,0,0-.132.73.688.688,0,0,0,.631.408A19.85,19.85,0,0,0,12.766,35.7a26.606,26.606,0,0,0,9.227,1.635c12.147,0,21.993-7.854,21.993-17.543S34.139,2.25,21.993,2.25ZM30.24,21.818a.681.681,0,0,1-.687.675H24.742v4.723a.681.681,0,0,1-.687.675H19.931a.681.681,0,0,1-.687-.675V22.492H14.433a.681.681,0,0,1-.687-.675V17.769a.681.681,0,0,1,.687-.675h4.811V12.371a.681.681,0,0,1,.687-.675h4.124a.681.681,0,0,1,.687.675v4.723h4.811a.681.681,0,0,1,.687.675Z" transform="translate(15.243 16.092)" fill="#f8f3f3"/>
</svg>
