<svg id="Group_23105" data-name="Group 23105" xmlns="http://www.w3.org/2000/svg" width="74.47" height="74.47" viewBox="0 0 74.47 74.47">
  <circle id="Ellipse_376" data-name="Ellipse 376" cx="37.235" cy="37.235" r="37.235" fill="#01357e"/>
  <path id="Icon_map-finance" data-name="Icon map-finance" d="M45.349,8.64H0V40.778H52.731V8.64Zm5.273,23.821a7.771,7.771,0,0,0-4.987,5.845H7.1a7.775,7.775,0,0,0-4.987-5.845v-15.5A7.775,7.775,0,0,0,7.1,11.112H45.659a8.13,8.13,0,0,0,4.963,5.817V32.461ZM28.6,27.249c-.243-.173-.122-.333-1.177-.48v3.581L28,30.225a1.781,1.781,0,0,0,1.175-1.794A1.381,1.381,0,0,0,28.6,27.249ZM23.85,21.406a1.37,1.37,0,0,0,.64,1.236A3.9,3.9,0,0,0,25.31,23V19.612A2.334,2.334,0,0,0,24.5,20,1.681,1.681,0,0,0,23.85,21.406Zm2.515-9.058c-5.243,0-9.492,5.535-9.492,12.361S21.123,37.07,26.366,37.07s9.492-5.536,9.492-12.361S31.608,12.348,26.366,12.348ZM30.43,31.7a5.738,5.738,0,0,1-3.01,1.321V34.6H25.311V32.991a4.906,4.906,0,0,1-2.729-1.032,4.917,4.917,0,0,1-1.489-3.541h2.624c.085,0,.252.99.5,1.34s.625.4,1.094.554V26.1a7.687,7.687,0,0,1-2.675-1.125,4.022,4.022,0,0,1-1.33-3.337,4.8,4.8,0,0,1,1.3-3.441,4.482,4.482,0,0,1,2.7-1.293V14.82H27.42v2.151a4.895,4.895,0,0,1,2.426,1.33c.99.862,1.687,1.464,1.735,3.936H28.938A2.327,2.327,0,0,0,27.7,20.076a2.232,2.232,0,0,1-.282-.256v3.885l.951.215a6.36,6.36,0,0,1,2.451,1.119,4.04,4.04,0,0,1,1.088,3.148A4.836,4.836,0,0,1,30.43,31.7Z" transform="translate(10.869 10.969)" fill="#fef9f9"/>
</svg>
