<svg id="Group_23111" data-name="Group 23111" xmlns="http://www.w3.org/2000/svg" width="74.47" height="74.47" viewBox="0 0 74.47 74.47">
  <circle id="Ellipse_376" data-name="Ellipse 376" cx="37.235" cy="37.235" r="37.235" fill="#01357e"/>
  <path id="Icon_metro-language" data-name="Icon metro-language" d="M24.365,27.439q-.03.07-.375-.012t-.944-.269l-.6-.211A19.816,19.816,0,0,1,19.841,25.8q-.21-.117-1.228-.737T17.474,24.4a42.328,42.328,0,0,1-4.015,4.237,20.409,20.409,0,0,1-3.146,2.575,2.955,2.955,0,0,1-.584.094,1.467,1.467,0,0,1-.554,0q.18-.094,2.457-2.154.629-.562,2.562-2.692a33.32,33.32,0,0,0,2.352-2.762q.509-.7,1.528-2.306a16.671,16.671,0,0,0,1.079-1.814,30.09,30.09,0,0,0-3.3.773q-.24.047-.824.176T14,20.744q-.449.094-.509.117-.06.047-.06.246t-.03.222q-.15.234-.929.351a3.066,3.066,0,0,1-1.408,0,1.279,1.279,0,0,1-.839-.492.984.984,0,0,1-.15-.538,7.226,7.226,0,0,1,.734-.117q.554-.07.884-.14,1.738-.375,3.146-.749,3-.819,3.056-.819a7.7,7.7,0,0,0,1.288-.456q.989-.41,1.318-.5.27-.07.644-.187t.434-.129a.51.51,0,0,1,.18.012,2.089,2.089,0,0,1-.03.773,4.542,4.542,0,0,1-.375.632q-.375.585-.794,1.252T20.051,21a34.391,34.391,0,0,1-2.307,3.067l1.918.655q.36.14,2.232.749t2.022.655q.12.023.315.6a1.415,1.415,0,0,1,.135.714ZM18.223,16.062a.77.77,0,0,1-.12.655,2.716,2.716,0,0,1-1.5.89,6,6,0,0,1-1.8.281,2.761,2.761,0,0,1-1.468-.609,1.611,1.611,0,0,1-.539-.96l.03-.07a1.562,1.562,0,0,0,.584.117,3.327,3.327,0,0,0,.794,0q.3-.047,1.738-.375a10.569,10.569,0,0,1,1.648-.328.575.575,0,0,1,.629.4Zm20.914,3.02L41.024,24.4l-4.165-.983ZM5.938,37.809l20.794-5.431V8.22L5.938,13.674V37.809Zm37.183-7.421,3.056.726-5.423-15.38-3-.726L31.287,27.556l3.056.726,1.348-2.575,6.322,1.522ZM28.051,7.869l17.169,4.307V3.28Zm9.318,30.971,4.734.3-1.618,3.746-1.2-1.545a26.169,26.169,0,0,1-8.27,2.528,18.194,18.194,0,0,1-2.727.281H25.773A25.342,25.342,0,0,1,19.8,43.24a22.772,22.772,0,0,1-5.5-1.99.46.46,0,0,1-.24-.375.4.4,0,0,1,.15-.316.576.576,0,0,1,.39-.129,1.985,1.985,0,0,1,.539.176q.419.176.914.386t.614.258a31.406,31.406,0,0,0,4.779,1.44,22.009,22.009,0,0,0,4.719.574,32.545,32.545,0,0,0,5-.339,29.884,29.884,0,0,0,4.7-1.182q.449-.164.914-.363t1.019-.445q.554-.246.854-.386ZM50.792,13.58V38.839L27.6,33.081q-.419.14-11.236,2.985T5.339,38.91a.548.548,0,0,1-.539-.3.154.154,0,0,0-.03-.07V13.3a.936.936,0,0,1,.12-.234,1.477,1.477,0,0,1,.6-.258q3.176-.819,4.464-1.17V2.648L26.672,7.283q.06,0,4.809-1.288t9.468-2.54Q45.668,2.2,45.788,2.2q.6,0,.6.492V12.48Z" transform="translate(8.18 14.108)" fill="#fcfbfb"/>
</svg>
