<?xml version="1.0" encoding="utf-8"?>
<!-- Generator: Adobe Illustrator 24.3.0, SVG Export Plug-In . SVG Version: 6.00 Build 0)  -->
<svg version="1.1" id="Layer_1" xmlns="http://www.w3.org/2000/svg" xmlns:xlink="http://www.w3.org/1999/xlink" x="0px" y="0px"
	 viewBox="0 0 170 170" style="enable-background:new 0 0 170 170;" xml:space="preserve">
<style type="text/css">
	.st0{fill:#0D3E84;stroke:#FFFFFF;stroke-width:2.5;}
	.st1{fill:#FDFDFD;}
	.st2{fill:#F9FAFB;}
	.st3{fill:#F6F7FA;}
	.st4{fill:#0D3E84;}
	.st5{fill:#FEFEFE;}
	.st6{fill:#01357E;}
	.st7{fill:#02357E;}
	.st8{fill:#FDFDFE;}
	.st9{fill:#FBFCFD;}
	.st10{fill:#F9FAFC;}
	.st11{fill:#FAFBFC;}
	.st12{fill:#04377F;}
	.st13{fill:#03367F;}
	.st14{fill:#03367E;}
	.st15{fill:#02367E;}
	.st16{fill:#FBFBFC;}
	.st17{fill:#FBFCFC;}
	.st18{fill:#BDCADD;}
</style>
<circle class="st0" cx="85" cy="85" r="83.75"/>
<g>
	<path class="st1" d="M58.55,70.85c3.16-1.28,2.59-3.44,2.24-5.6c-1.46-9.05,0.15-17.73,3.26-26.21c0.43-1.19,0.68-2.99,2.43-2.42
		c1.35,0.44,0.74,1.97,0.41,3.03c-0.41,1.33-1.91,2.99-0.27,3.91c1.67,0.93,3.74,0.62,5.55-0.73c1.52-1.13,2.93-4.88,4.65-2.75
		c1.85,2.29-2.11,3.7-3.55,5.43c-1.27,1.53-3.33,1.12-5.13,1.23c-1.39,0.09-3.39-0.61-3.75,1.38c-0.36,1.98-1.82,4.19,0,6.12
		c3.36,3.56,6.32,7.36,12.39,6.63c3.53-0.43,4.38-1.37,4.24-4.66c-0.24-5.61-0.09-11.23-0.04-16.85c0.01-1.05-0.46-2.62,1.17-2.81
		c1.63-0.2,1.67,1.26,1.67,2.41c0.02,8.26,0.02,16.52,0.01,24.78c0,0.99-0.02,2.12-1.24,2.39c-0.92,0.2-1.26-0.52-1.69-1.33
		c-1.5-2.83-3.99-0.79-7.27-1.72c5.73,5.76,3.72,11.94,4.07,17.7c0.09,1.39,0.48,3.61-1.39,3.67c-2.14,0.07-1.19-2.21-1.41-3.51
		c-0.11-0.64-0.02-1.3-0.02-1.92c-1.65-0.67-3.11,2.46-4.36,0.21c-0.75-1.36,1.03-2.22,1.87-3.15c3.4-3.78,3.46-6.1,0.01-9.72
		c-2.7-2.84-5.51-5.58-8.75-8.86c-1.07,5.05,0.07,9.15,0.96,13.21c1.8,8.21,3.58,16.44,5.77,24.55c2.24,8.28,2.19,16.3-1.25,24.2
		c-1.37,3.16-1.74,5.56,2.99,5.09c1.06-0.11,2.18,0.12,2.2,1.37c0.02,1.18-1.01,1.39-2.09,1.54c-5.24,0.76-8.34-2.46-6.28-7.21
		c3.88-8.98,3.67-17.89,1.09-27.09c-1.86-6.65-3.31-13.42-4.95-20.18c-2.86,0.81-2.69,2.49-2.14,4.68
		c1.81,7.19,3.42,14.43,5.13,21.65c1.46,6.16,0.71,12.05-1.6,17.93c-3.54,9.02-0.57,13.3,8.98,13.31
		c11.92,0.01,23.83,0.03,35.75-0.03c1.8-0.01,4.65,0.77,4.43-2.31c-0.19-2.62-2.82-1.88-4.43-1.57c-4.83,0.93-8.55-0.67-12.17-3.87
		c-18.41-16.31-14.67-8.47-15.09-32.23c-0.1-5.78-0.05-11.57,0.02-17.35c0.01-1.16-0.65-3.11,1.32-3.11
		c1.79-0.01,1.52,1.83,1.53,3.1c0.02,10.08,0.14,20.16-0.05,30.23c-0.07,3.65,1.02,6.32,3.93,8.5c2.77,2.08,5.45,4.33,7.94,6.73
		c3.98,3.84,8.09,6.53,14.1,4.98c3.21-0.83,5.67,1.15,5.92,4.42c0.28,3.62-2.1,5.38-5.62,5.38c-13.57,0.03-27.14,0.16-40.71-0.07
		c-6.75-0.11-12.53-6.62-9.82-12.41c6.62-14.14,1.31-27.21-1.93-40.48c-3.23-13.2-5.03-26.25-0.65-39.5
		c0.26-0.78,0.32-1.66,0.71-2.36c0.5-0.9,0.56-2.61,2.2-2.06c1.62,0.54,0.83,1.82,0.49,2.89c-2.03,6.49-3.41,13.07-3.23,19.93
		C57.2,63.22,57.42,66.99,58.55,70.85z"/>
</g>
</svg>
