<svg xmlns="http://www.w3.org/2000/svg" width="80.1" height="82.654" viewBox="0 0 80.1 82.654">
  <g id="Group_22040" data-name="Group 22040" transform="translate(-1088 -283)">
    <path id="Path_12527" data-name="Path 12527" d="M1100.419,316.728a6.309,6.309,0,0,1-3.513-1.065,6.33,6.33,0,0,1-2.669-6.49,6.277,6.277,0,0,1,4.957-4.965,6.313,6.313,0,0,1,6.482,2.685,6.325,6.325,0,0,1-5.256,9.835Zm8.416,5.638a5.017,5.017,0,0,0-1.525-2.62,5.124,5.124,0,0,0-2.751-1.3,1.264,1.264,0,0,0-.544.041,1.194,1.194,0,0,0-.49.264l-1.661,1.443a2.159,2.159,0,0,1-2.8,0l-1.662-1.443a1.224,1.224,0,0,0-.49-.267,1.4,1.4,0,0,0-.572-.038,5.154,5.154,0,0,0-2.723,1.3,5.013,5.013,0,0,0-1.525,2.62l-4.058,17.025a2.308,2.308,0,0,0,.354,1.637,2.189,2.189,0,0,0,1.417.91l.109.016a2.125,2.125,0,0,0,.844-.076l-1.879,7.912a1.311,1.311,0,0,0,.218,1.049,1.456,1.456,0,0,0,.9.586,1.493,1.493,0,0,0,.245.022h5.611l1.089,12.324a2.058,2.058,0,0,0,.681,1.313,2.1,2.1,0,0,0,1.389.528h2.832a2.08,2.08,0,0,0,2.042-1.841l1.09-12.324h5.611a1.389,1.389,0,0,0,.545-.109,1.654,1.654,0,0,0,.463-.308,2.232,2.232,0,0,0,.3-.458,1.755,1.755,0,0,0,.082-.537.76.76,0,0,0-.027-.248l-1.879-7.912a2.039,2.039,0,0,0,.817.076,2.112,2.112,0,0,0,.817-.27,2.445,2.445,0,0,0,.654-.561,2.569,2.569,0,0,0,.381-.765,3,3,0,0,0,.055-.855l-.027-.112Zm53.272-11.967a6.421,6.421,0,0,0-1.062-3.511,6.379,6.379,0,0,0-6.509-2.685,6.364,6.364,0,0,0-4.957,4.962,6.278,6.278,0,0,0,2.7,6.488,6.35,6.35,0,0,0,7.98-.784,6.748,6.748,0,0,0,1.362-2.051A6.166,6.166,0,0,0,1162.107,310.4Zm2.1,11.967a5.125,5.125,0,0,0-4.276-3.922,1.4,1.4,0,0,0-.572.038,1.744,1.744,0,0,0-.49.267l-1.661,1.443a2.108,2.108,0,0,1-1.389.518,2.233,2.233,0,0,1-1.416-.518l-1.634-1.443a1.507,1.507,0,0,0-.518-.264,1.2,1.2,0,0,0-.544-.041,5.149,5.149,0,0,0-2.751,1.3,5.41,5.41,0,0,0-1.525,2.617l-4.058,17.025a1.827,1.827,0,0,0,.027.855,2.079,2.079,0,0,0,.327.784,2.183,2.183,0,0,0,.626.6,2.044,2.044,0,0,0,.79.31l.109.016a2.087,2.087,0,0,0,.817-.076l-1.906,7.912a1.424,1.424,0,0,0,.218,1.049,1.446,1.446,0,0,0,.9.586,1.489,1.489,0,0,0,.245.022h5.611l1.089,12.324a2.074,2.074,0,0,0,2.07,1.841h2.833a2.074,2.074,0,0,0,2.07-1.841l1.089-12.324h5.61a1.494,1.494,0,0,0,.545-.109,1.226,1.226,0,0,0,.436-.308,1.11,1.11,0,0,0,.3-.458,1.214,1.214,0,0,0,.109-.537.76.76,0,0,0-.027-.248l-1.906-7.912a2.121,2.121,0,0,0,.844.076,2.463,2.463,0,0,0,.817-.27,2.252,2.252,0,0,0,1.008-1.329,1.808,1.808,0,0,0,.055-.853v-.112Zm-43.631-22.507a6.311,6.311,0,0,0-3.895-5.837,6.288,6.288,0,0,0-3.65-.359,6.278,6.278,0,0,0-4.957,4.962,6.212,6.212,0,0,0,.354,3.652,6.286,6.286,0,0,0,5.828,3.9,6.318,6.318,0,0,0,6.319-6.319Zm27.671,0a6.311,6.311,0,0,0-3.895-5.837,6.287,6.287,0,0,0-3.65-.359,6.329,6.329,0,0,0-4.6,8.615,6.361,6.361,0,0,0,5.828,3.9,6.273,6.273,0,0,0,6.319-6.319Zm-20.127-4.221a6.361,6.361,0,0,0,5.829-3.9,6.3,6.3,0,0,0-4.6-8.615,6.307,6.307,0,0,0-3.65.357,6.157,6.157,0,0,0-2.832,2.329,6.23,6.23,0,0,0-1.09,3.511,6.323,6.323,0,0,0,6.319,6.319Zm0,21.08a6.361,6.361,0,0,0,5.829-3.9,6.3,6.3,0,0,0-4.6-8.615,6.286,6.286,0,0,0-3.65.359,6.135,6.135,0,0,0-2.832,2.326,6.23,6.23,0,0,0-1.09,3.511,6.332,6.332,0,0,0,6.346,6.33Zm5.965,1.659H1131.9a1.437,1.437,0,0,0-.708.308l-1.661,1.452a2.149,2.149,0,0,1-2.778,0l-1.661-1.452a1.425,1.425,0,0,0-.736-.308h-2.233a5.248,5.248,0,0,0-3.786,1.566,5.122,5.122,0,0,0-1.171,1.735,5.289,5.289,0,0,0-.408,2.048c0,.2.027.4.027.6l1.553,11.695a4.713,4.713,0,0,0,.953,2.293,4.546,4.546,0,0,0,2.015,1.454l2.615,24.049a2.074,2.074,0,0,0,2.07,1.841h4.14a2.077,2.077,0,0,0,1.389-.528,2.185,2.185,0,0,0,.681-1.313l2.588-24a4.522,4.522,0,0,0,3.077-3.78l1.552-11.711a4.9,4.9,0,0,0-.191-2.081,5.329,5.329,0,0,0-.953-1.852,5.4,5.4,0,0,0-3.595-1.972,5.036,5.036,0,0,0-.572-.033Z" transform="translate(0)" fill="#01357e"/>
  </g>
</svg>
