<svg xmlns="http://www.w3.org/2000/svg" width="77.888" height="89.563" viewBox="0 0 77.888 89.563">
  <g id="Group_22038" data-name="Group 22038" transform="translate(-799 -399)">
    <path id="Path_12532" data-name="Path 12532" d="M829.146,407.522l.257-.391,2.317-.18c-.085-.456-.126-.677-.162-.873l.5-.386a3.615,3.615,0,0,0-.654-.661.651.651,0,0,0-.306-.028.665.665,0,0,0-.281.121c-.456.409-.862.873-1.287,1.315l-.276-.108.116-1.393-.656.448c-.111-.257-.229-.5-.317-.752a.457.457,0,0,1,0-.332c.546-.474.242-.919-.023-1.367l2.335-.667c-1.434-.646-1.933-.461-2.317.68l-.759.314c-.556.232-.589.649-.258,1.184.314.494-.087.772-.5.976-.283.147-.551.322-.86.515-.322-.577-1.03-.515-1.681-.515a1.383,1.383,0,0,1-1.544-1.073l-1.179.208.515.144c-.3.288-.638.6-.96.909-.021-.677-.489-.757-1.164-.615a3.7,3.7,0,0,1-1.05-.1l-.021-.193.888-.337a15.114,15.114,0,0,0-1.771-.723,10.881,10.881,0,0,0-1.658-.2l.09-.371a.332.332,0,0,0-.131-.026l-2.456.515c-.1.023-.229,0-.3.046-.556.386-1.03.036-1.562-.075a4.233,4.233,0,0,0-2.729-.018.341.341,0,0,1-.152.021.37.37,0,0,1-.147-.041,34.809,34.809,0,0,1,23.715-3.861l-.363.541a1.546,1.546,0,0,0,.443.242,5.037,5.037,0,0,1,1.014.175l-1.4.494c.425.139.749.257,1.076.348a12,12,0,0,0,1.372.368.8.8,0,0,0,.445.021.814.814,0,0,0,.391-.214,2.7,2.7,0,0,1,1.773-.342,13.535,13.535,0,0,1,2.144.438l-.046.257-1.8-.342c.2,1.089.947,1.357,1.851,1.568a2.859,2.859,0,0,1,2.118,3.019l1.071.594-.082.2H842.1c.378.283.87.463.945.749.09.35-.173.79-.275,1.171a.384.384,0,0,0-.157-.157c-.136-.069-.386-.17-.443-.113-.335.348.136,2.036.6,2.229.044.018.1.015.033,0-.131,1.115.61,1.833,1.128,2.669l.566-.124.571.793.258.054.515-1.287a4.088,4.088,0,0,0,.257-.677c.167-.911.772-1.063,1.544-.937a.418.418,0,0,0,.188-.021.44.44,0,0,0,.162-.1c.458-.772,1.145-.469,1.8-.432a.919.919,0,0,0,.68-.2c.1-.131-.036-.453-.106-.679-.172-.543-.365-1.078-.564-1.655a32.175,32.175,0,0,1,9.267,13.928c-.183.257-.409.45-.45.672-.157.862-.353,1.176-.994,1.331a6.972,6.972,0,0,1,.7,1.179,7.686,7.686,0,0,1,.242,1.449c-.324-.067-.546-.093-.752-.16-.811-.257-.831-.242-.76.569.042.458,0,.924,0,1.385a1.995,1.995,0,0,0,.986,1.766c.813-.108,1.078-.559.958-1.462a4.723,4.723,0,0,1,.432-1.665l.59-.172a10.406,10.406,0,0,1,1.058,5.8c-.142-.543-.278-1.086-.43-1.627-.075-.257-.155-.705-.273-.721a1.627,1.627,0,0,0-1.14.16.852.852,0,0,1-1.189.105,7.247,7.247,0,0,0-.826,1.851,4.286,4.286,0,0,1-.983,2.144,9.436,9.436,0,0,0-1.256,2.718c-.124.345.085.793.067,1.189a5.285,5.285,0,0,1-.214,1.591,2.551,2.551,0,0,0-.162,1.295,2.587,2.587,0,0,0,.494,1.207c.4.6.682,1.287,1.055,1.9.211.353.471.463.893.152a21.658,21.658,0,0,1,1.99-1.189c.721.43.327,1.1.17,1.748a29.282,29.282,0,0,1-7.148,12.492,34.472,34.472,0,0,1-14.842,9.72,41.234,41.234,0,0,1-3.987,1.06,6.092,6.092,0,0,1-1.336.016l-.021-.224.873-.548-.6-.278c.53-.317,1.287-.458.844-1.326.553-.023,1.125.1,1.287-.607.018-.08.257-.111.409-.149a5.828,5.828,0,0,0,.973-.257c.257-.124.6-.327.669-.564.054-.185-.258-.476-.371-.677a2.171,2.171,0,0,0,2.438-1.145c.258-.469.865-.739,1.236-1.163a5.62,5.62,0,0,0,.45-.96,1.728,1.728,0,0,1,.515-.659c.728-.43,1.544-.734,2.224-1.212a4.452,4.452,0,0,0,1.339-1.416c.35-.633.394-1.431.716-2.09a10.323,10.323,0,0,1,1.223-1.8c.528-.674,1.218-1.269.811-2.139a11.4,11.4,0,0,0-1.2-.667,2.972,2.972,0,0,0-1.223-.306,6.588,6.588,0,0,1-2.247-.548,3.809,3.809,0,0,0-.983-.013c-.062-.448-.258-.466-1.349.08,0-.124-.026-.242.021-.3.231-.3.718-.607.682-.852a4.149,4.149,0,0,0-.661-1.357,1.8,1.8,0,0,0-1.928-.818,1.85,1.85,0,0,1-.888-.16,1.873,1.873,0,0,1-.71-.556,12.5,12.5,0,0,0-1.64-1.2c-.2-.144-.389-.306-.515-.407l-2.456.134c-.052,0-.136.026-.149,0a.884.884,0,0,0-.394-.427.87.87,0,0,0-.574-.087c-.371.069-.734.175-1.3.317l.53-.927c-1.346.654-2.754.88-3.238,2.443a1.544,1.544,0,0,0-2.113-.551c-.713.355-1.8-.772-1.632-1.6.044-.2.139-.394.183-.595.257-1.269-.232-1.766-1.545-1.588a9.8,9.8,0,0,1-1.287,0l1.315-3.408a9.8,9.8,0,0,1-1.4.16c-.669-.021-.592.515-.772.88a5.229,5.229,0,0,1-.548.811,5.164,5.164,0,0,0-.69,0,1.863,1.863,0,0,1-1.534-.232,1.883,1.883,0,0,1-.556-.566,1.843,1.843,0,0,1-.265-.746,12.129,12.129,0,0,1,.211-2.713c.015-.175.046-.353.052-.528a1.65,1.65,0,0,1,1.03-1.655,3.306,3.306,0,0,1,2-.443,5.961,5.961,0,0,1,1.195.391,1.677,1.677,0,0,1,.438-.548,1.646,1.646,0,0,1,.62-.324,1.691,1.691,0,0,1,1.359.2c.116.072.257.193.36.185.726-.046,1.014.257,1.03,1.011a2.756,2.756,0,0,0,.9,2.01c.8-.721.257-1.472.229-2.175a5.024,5.024,0,0,0-.172-.916,1.423,1.423,0,0,1,.811-1.658,15.214,15.214,0,0,0,2.162-1.544,2.026,2.026,0,0,0,.368-1.151,4.712,4.712,0,0,1,.1-1.043l.358.515c.126-.384.231-.713.363-1.112.1-.07.44-.183.481-.366.19-.847.821-.994,1.524-1.133.317-.062.679-.108.615-.7-.033-.3.376-.808.71-.973.839-.417,1.75-.69,2.731-1.058-.229.577-1.393.5-.739,1.341l2.435-1.117c-.35-.064-.535-.08-.71-.134-.628-.2-1.153-.484-.98-1.3.015-.085-.129-.2-.206-.314l.6-.337c-.608-.806-1.524-.613-3.182.481.752-.569,1.49-1.151,2.26-1.691a1.074,1.074,0,0,1,.656-.1c.716.054,1.428.175,2.142.191a2.524,2.524,0,0,0,.89-.283c.183-.075.35-.191.531-.278.314-.152.806-.227.906-.466a.854.854,0,0,0,.1-.335.833.833,0,0,0-.512-.847c-.286-.1-.669.072-1.012.121a.354.354,0,0,1-.173,0,.35.35,0,0,1-.154-.077l1.089-.443-1.611-1.385c.461-1.264-.644-2.1-.6-3.117l-1.673,1.454c-.548-.69-.873-1.254-.515-1.967,0-.021.015-.064,0-.075-.538-.484-1.068-.978-1.629-1.436-.118-.1-.35-.039-.515-.08-1.138-.275-1.308-.278-1.287.819a1.808,1.808,0,0,1-.821,1.544c.9,1.658.6,2.278-1.4,2.888v1.8c0,.528-.44.551-.754.685-1.1-.816-.747-1.833-.43-2.746-.636-.286-1.233-.515-1.8-.821-.258-.136-.412-.466-.667-.595-.551-.275-1.138-.479-1.771-.736,0-.1.057-.412.07-.726,0-.118-.064-.342-.105-.345-1.053-.049-.288-.772-.211-.885a4.631,4.631,0,0,1,2.489-2.139c.312-.1.556-.515.852-.543a3.809,3.809,0,0,0,2.2-1.2q-.313.684-.631,1.375l.368.551.939-.61,1.03.533a1.259,1.259,0,0,0-.35-.821C830.1,408.153,829.836,407.535,829.146,407.522Zm10.005,1.156L837,406.956c.193-.363.34-.641.5-.937l-.867-.121.59-.232a8.877,8.877,0,0,1-2.317-1.864c-.054-.09-.324-.08-.494-.072-.293.015-.584.064-.885.1.049-.438.08-.687.121-1.061a4.459,4.459,0,0,0-1.472.2c-.319.167-.466.656-.687,1-.453-.829.4-1.03.813-1.452-1.194-.129-2.059.319-2.317,1.169l.6.257-.021.072-.754-.1c.059.183.07.342.124.358,1.05.335,2.1.659,3.169.947.085.026.257-.239.376-.368l1.858,2.329-1.369,1.156a1.508,1.508,0,0,1-.857.116,3.356,3.356,0,0,0-.752.077.6.6,0,0,0-.036.324,1.712,1.712,0,0,0,.713.165,1.343,1.343,0,0,1,1.544.772c.407.983,1.315,1.138,2.041,1.6l.142-.149-.85-1.117.075-.085,1.271.8c.546-1.068-.569-1.506-.757-2.211l.553-.4.908,1.287Zm-15.274-6.693-1.156-.312c-.2-.314-.291-.682-.5-.772-1.418-.554-2.422.515-3.568,1-.085.036-.067.319-.116.6l2.208-.747.031.07-.623.371.435.188-.772.312.051.167,1.66.17-.023.224a8.964,8.964,0,0,0-1.287-.064,2.551,2.551,0,0,0-.757.332l.644.479-.1.515c.677-.106,1.287-.234,1.894-.283.474-.039.947-.257,1.437.154.224.193.713.08,1.083.106l.052-.178-.244-.216,1.05-.2-.656-.885.739-1.22c-1.006-.592-1.03.641-1.694.862Zm14.314,19.5c.659.147,1.259.327,1.871.4.4.046.772-.116.744-.656a1.392,1.392,0,0,1,.052-.386l-1.356-.708.553-.793-.273-.191Zm-11.632,17.82,1.8-.2.039-.221c-.739-.366-1.467-.772-2.224-1.089a9.536,9.536,0,0,0-1.635-.533,1.348,1.348,0,0,0-.8.01,1.362,1.362,0,0,0-.654.463,5.339,5.339,0,0,1,3.887,1.117Zm-.322-39.01.257-.178c-.36.085-.88.363-1.058.221a2.557,2.557,0,0,0-2.556-.461,2.377,2.377,0,0,0,2.7.87c.185-.054.412.057.615.036.314-.031.623-.111.934-.17l-.458.324Zm4.536,1.308a8.038,8.038,0,0,0,3.9.661,1.637,1.637,0,0,0-1.03-.515,2.568,2.568,0,0,1-2.291-1.014Zm25.771,17.339-.193.036c.4,1.357.79,2.716,1.2,4.142l.891.041c-.667-1.485-1.284-2.854-1.9-4.224Zm-28.2,21.107a5.3,5.3,0,0,0,3.3-.09l.046-.229-2.36-.682v.929Zm-1.521-36.873c.772-.18,1.581-.257,1.459-1.362-.494-.216-1.03-.368-1.23.286h-.772l.309.6C826.675,402.863,826.747,403.028,826.822,403.177ZM851.556,413.3c.221,1.135,1.086,1.606,1.879,1.03a1.345,1.345,0,0,0-.224-.577,1.37,1.37,0,0,0-.456-.412,1.347,1.347,0,0,0-.595-.165A1.363,1.363,0,0,0,851.556,413.3Zm4.939,7-.376.054v1.918l.772-.4ZM825.46,404.436l-.028.35,1.158.19.062-.541Zm4.312-3.691-.039-.229H828.41c.031.206.059.386.105.7Z" transform="translate(15.744 0)" fill="#01357e"/>
    <path id="Path_12533" data-name="Path 12533" d="M814.044,402.57l-.239.445.656-.147c-.867.739-1.681,1.411-2.466,2.111a1.766,1.766,0,0,0-.566.693,1.789,1.789,0,0,0-.157.88,1.809,1.809,0,0,0,.258.494l-.348.592.152.142,2.607-2.574.069.057-.43.633c.471-.34,1.269-.183,1.421-.955a.621.621,0,0,1,.45-.049,3.129,3.129,0,0,1,.955.5,8.155,8.155,0,0,1,.852,1.03l.17-.257a2.225,2.225,0,0,1,.481,1.1,2.185,2.185,0,0,1-.165,1.187,4.241,4.241,0,0,0-.149,1.416,5.558,5.558,0,0,0,.425,1.184.3.3,0,0,1-.057.144c-.355.515-.224.891.147,1.367a4.993,4.993,0,0,1,.667,1.511c.049.152-.1.371-.152.538l-.623-.394a34.887,34.887,0,0,0-1.4,3.8,5.419,5.419,0,0,0-.237,3.861,10.469,10.469,0,0,1,.332,1.91,1.163,1.163,0,0,0,.5.636,1.824,1.824,0,0,1,.893,1.351,20.418,20.418,0,0,0,.705,2.106,7.15,7.15,0,0,1,.033.847,1.035,1.035,0,0,0,.288.584,1.342,1.342,0,0,1,.5.5,1.356,1.356,0,0,1,.183.682c0,.435.61.862,1.009,1.259-.577-1.817-1.47-3.514-1.938-5.346l.322-.188c.193.234.546.461.553.7.041,1.03.772,1.7,1.225,2.51.515.9,1.1,1.74,1.635,2.625.155.257.358.625.283.862-.43,1.354.674,1.591,1.444,2.023.852.474,1.755.86,2.641,1.272.16.072.407.18.515.113.965-.631,1.39.257,2.041.631a22.017,22.017,0,0,0,2.489,1.058l.072-.211,1.179,1.907,2.644,1.354a2.42,2.42,0,0,1,.4-.721c.129-.111.561-.124.594-.054a8.341,8.341,0,0,1,.641,1.645c.291,1.22-.445,1.884-1.341,2.556-.342.257-.368.952-.489,1.459-.015.067.257.2.515.389a1.289,1.289,0,0,1-.258.384c-.644.5-.615,1.006.052,1.5a3.133,3.133,0,0,1,.772.844,27.781,27.781,0,0,0,1.514,2.481,4.494,4.494,0,0,0,1.57,1.06c1.743.855,1.606.873,1.506,2.669-.075,1.346-.224,2.692-.345,4.119-1.663-1.318-3.665-.806-5.565-.824-5.112-.044-10.224,0-15.333,0a1.051,1.051,0,0,0-.312,0,3.447,3.447,0,0,1-3.23-1.006,34.3,34.3,0,0,1-11.277-13.63,34.7,34.7,0,0,1-.08-29.694,35.507,35.507,0,0,1,5.92-8.991c.857-.973,1.735-1.931,2.6-2.9Zm4.265,11.5c.106-.883-.09-1.2-1.1-1.766a1.87,1.87,0,0,0,1.1,1.766Z" transform="translate(4.637 5.267)" fill="#01357e"/>
    <path id="Path_12534" data-name="Path 12534" d="M799,449.657c.883-1.331,1.714-2.6,2.574-3.861,2.291-3.393,4.61-6.77,6.87-10.183.656-.988,1.081-2.129,1.735-3.117a14.613,14.613,0,0,1,9.434-6.268,31.172,31.172,0,0,1,6.1-.7c5.526-.093,11.055-.039,16.582-.028a3.747,3.747,0,0,1,3.974,4.68,3.82,3.82,0,0,1-3.794,2.883H828.864a1.316,1.316,0,0,0-.54.013,8.431,8.431,0,0,0-.893.587c.258.216.469.556.754.628a7.242,7.242,0,0,0,1.776.2q14.707,0,29.411-.036a1.479,1.479,0,0,0,.922-.42c2.664-2.643,5.3-5.315,7.956-7.979.533-.535,1.089-1.048,1.655-1.544a3.107,3.107,0,0,1,4.412.2,3.187,3.187,0,0,1-.077,4.435q-5.56,5.765-11.115,11.537a10.775,10.775,0,0,1-6.018,2.867,16.58,16.58,0,0,1-3.027.257c-7.722.018-15.444.046-23.167,0a7.728,7.728,0,0,0-7.321,4.744,2.777,2.777,0,0,0-.258.649c-.087.4-.291.515-.705.515q-11.583-.019-23.154,0C799.347,449.706,799.224,449.68,799,449.657Z" transform="translate(0 38.855)" fill="#01357e"/>
    <path id="Path_12535" data-name="Path 12535" d="M820.505,433.423c1.287-1.416,2.551-2.865,3.889-4.237,1.673-1.712,3.411-3.346,5.125-5.03a1.771,1.771,0,0,1,.569-.463,1.824,1.824,0,0,1,.7-.2,1.811,1.811,0,0,1,1.359.466,1.907,1.907,0,0,1,.438.62,1.889,1.889,0,0,1,0,1.485,1.907,1.907,0,0,1-.437.62c-1.287,1.364-2.613,2.685-3.92,4.026-.816.839-1.619,1.691-2.445,2.52a1.145,1.145,0,0,1-.631.389c-1.5.036-3.006.018-4.51.018Z" transform="translate(33.85 38.543)" fill="#01357e"/>
    <path id="Path_12536" data-name="Path 12536" d="M818.1,431.036q1.336-1.591,2.682-3.181a.836.836,0,0,1,.337-.188c2.4-.875,4.8-1.745,7.182-2.61-.312.345-.682.754-1.05,1.166-1.369,1.544-2.729,3.076-4.118,4.595a1.136,1.136,0,0,1-.687.389c-1.406.036-2.811.018-4.216.018Z" transform="translate(30.066 41.015)" fill="#01357e"/>
    <path id="Path_12537" data-name="Path 12537" d="M806.946,402.841l1.483-1.169.173.221-1.49,1.156Z" transform="translate(12.507 4.206)" fill="#01357e"/>
    <path id="Path_12538" data-name="Path 12538" d="M826.429,406.559l-1.189.816-.909-1.287-.553.4c.188.705,1.3,1.143.757,2.211l-1.272-.8-.074.085.849,1.117-.142.149c-.726-.466-1.635-.62-2.041-1.6a1.346,1.346,0,0,0-1.544-.772,1.71,1.71,0,0,1-.713-.165.607.607,0,0,1,.036-.324,3.512,3.512,0,0,1,.751-.077,1.509,1.509,0,0,0,.857-.116l1.369-1.156-1.858-2.329c-.126.129-.291.394-.376.368-1.066-.288-2.119-.613-3.169-.947-.054-.015-.064-.175-.124-.358l.754.1.021-.072-.6-.257c.258-.849,1.12-1.287,2.317-1.169-.417.432-1.267.623-.813,1.452.221-.342.368-.831.687-1a4.468,4.468,0,0,1,1.472-.2c-.041.373-.072.623-.121,1.061.3-.033.592-.082.885-.1.17,0,.44-.018.494.072a6.336,6.336,0,0,0,1.568,1.4,6.068,6.068,0,0,0,.749.469l-.589.232.867.121c-.16.3-.306.574-.5.937Z" transform="translate(28.467 2.132)" fill="#01357e"/>
    <path id="Path_12539" data-name="Path 12539" d="M818.053,400.913l-.224.682c.667-.221.688-1.454,1.694-.862l-.739,1.22.656.885-1.05.2.245.216-.052.178c-.371-.026-.86.088-1.084-.105-.489-.425-.963-.193-1.436-.155-.613.049-1.218.178-1.895.283l.1-.515-.644-.479a2.581,2.581,0,0,1,.757-.332,8.984,8.984,0,0,1,1.287.064l.023-.224-1.66-.17-.052-.167.772-.312-.435-.188.623-.371-.031-.069-2.208.746c.049-.286.031-.569.116-.6,1.146-.5,2.149-1.544,3.568-1,.206.082.3.45.5.772Z" transform="translate(21.568 1.068)" fill="#01357e"/>
    <path id="Path_12540" data-name="Path 12540" d="M820.346,409.162l1.591-2.335.273.19-.553.793,1.356.708a1.307,1.307,0,0,0-.052.386c.023.541-.34.7-.744.656A15.741,15.741,0,0,1,820.346,409.162Z" transform="translate(33.6 12.32)" fill="#01357e"/>
    <path id="Path_12541" data-name="Path 12541" d="M817.948,415.938l.412-.448a5.338,5.338,0,0,0-3.887-1.117,1.347,1.347,0,0,1,1.454-.474,9.562,9.562,0,0,1,1.634.533c.757.327,1.485.723,2.224,1.089l-.039.221Z" transform="translate(24.355 23.364)" fill="#01357e"/>
    <path id="Path_12542" data-name="Path 12542" d="M817.755,399.855l.43.644.458-.324c-.312.059-.62.139-.935.17-.2.021-.43-.09-.615-.036a2.377,2.377,0,0,1-2.7-.87,2.556,2.556,0,0,1,2.556.461c.178.142.7-.136,1.058-.221Z" transform="translate(24.226 0.437)" fill="#01357e"/>
    <path id="Path_12543" data-name="Path 12543" d="M817.46,400.547l.589-.878a2.568,2.568,0,0,0,2.291,1.014,1.664,1.664,0,0,1,1.03.515A8.022,8.022,0,0,1,817.46,400.547Z" transform="translate(29.057 1.053)" fill="#01357e"/>
    <path id="Path_12544" data-name="Path 12544" d="M817.19,402.328c.69.013.958.631,1.4,1a1.253,1.253,0,0,1,.35.821l-1.03-.533-.939.61-.368-.551q.316-.691.631-1.375Z" transform="translate(27.7 5.194)" fill="#01357e"/>
    <path id="Path_12545" data-name="Path 12545" d="M827.59,406.746c.618,1.369,1.236,2.739,1.9,4.219l-.891-.041c-.415-1.426-.808-2.785-1.2-4.142Z" transform="translate(44.698 12.192)" fill="#01357e"/>
    <path id="Path_12546" data-name="Path 12546" d="M816.516,415.56l.986-.072v-.929l2.36.682-.046.229A5.3,5.3,0,0,1,816.516,415.56Z" transform="translate(27.571 24.49)" fill="#01357e"/>
    <path id="Path_12547" data-name="Path 12547" d="M816.251,401.569c-.074-.154-.147-.314-.224-.471l-.309-.6h.772c.211-.654.736-.5,1.23-.286C817.831,401.309,817.01,401.389,816.251,401.569Z" transform="translate(26.315 1.608)" fill="#01357e"/>
    <path id="Path_12548" data-name="Path 12548" d="M825.534,404.629a1.326,1.326,0,0,1,.6-.121,1.311,1.311,0,0,1,.595.162,1.351,1.351,0,0,1,.456.414,1.322,1.322,0,0,1,.224.574C826.62,406.235,825.755,405.764,825.534,404.629Z" transform="translate(41.766 8.667)" fill="#01357e"/>
    <path id="Path_12549" data-name="Path 12549" d="M816.557,401.176c.389-1.14.888-1.326,2.317-.68l-2.335.667Z" transform="translate(27.607 1.773)" fill="#01357e"/>
    <path id="Path_12550" data-name="Path 12550" d="M827.676,407.275l.407,1.568-.772.4v-1.918Z" transform="translate(44.563 13.025)" fill="#01357e"/>
    <path id="Path_12551" data-name="Path 12551" d="M815.413,401.112h1.192l-.062.541-1.158-.19Z" transform="translate(25.791 3.324)" fill="#01357e"/>
    <path id="Path_12552" data-name="Path 12552" d="M817.9,399.818l-1.256.471c-.046-.314-.075-.494-.105-.7h1.323Z" transform="translate(27.612 0.927)" fill="#01357e"/>
    <path id="Path_12553" data-name="Path 12553" d="M808.978,407.982a1.874,1.874,0,0,1-1.1-1.766C808.888,406.785,809.086,407.1,808.978,407.982Z" transform="translate(13.971 11.358)" fill="#01357e"/>
  </g>
</svg>
