<svg xmlns="http://www.w3.org/2000/svg" width="78" height="78" viewBox="0 0 78 78">
  <g id="Group_22036" data-name="Group 22036" transform="translate(-818.832 -300.135)">
    <path id="Icon_awesome-stethoscope" data-name="Icon awesome-stethoscope" d="M68.113,17.061A9.748,9.748,0,0,0,63.39,35.252V52.407c0,8.73-7.648,15.845-17.062,15.845-9.141,0-16.636-6.719-17.047-15.113A24.441,24.441,0,0,0,48.75,29.249V5.574a3.654,3.654,0,0,0-2.94-3.58L36.227.074a3.647,3.647,0,0,0-4.3,2.864L31.444,5.33a3.647,3.647,0,0,0,2.864,4.3l4.677.929v18.5a14.626,14.626,0,1,1-29.25.183V10.571l4.677-.929a3.647,3.647,0,0,0,2.864-4.3L16.8,2.953a3.647,3.647,0,0,0-4.3-2.864L2.94,1.978A3.671,3.671,0,0,0,0,5.574V29.249A24.413,24.413,0,0,0,19.515,53.138C19.911,66.911,31.779,78,46.312,78c14.777,0,26.812-11.487,26.812-25.6V35.252a9.749,9.749,0,0,0-5.012-18.191Zm.137,12.188a2.438,2.438,0,1,1,2.438-2.438A2.445,2.445,0,0,1,68.25,29.249Z" transform="translate(818.832 300.133)" fill="#01357e"/>
  </g>
</svg>
