<svg xmlns="http://www.w3.org/2000/svg" width="84.437" height="98.569" viewBox="0 0 84.437 98.569">
  <g id="Group_22041" data-name="Group 22041" transform="translate(-1089 -400)">
    <path id="Path_12580" data-name="Path 12580" d="M1096.039,491.54V422.182a9.742,9.742,0,0,1,.06-1.326,3.341,3.341,0,0,1,3.5-3.238h14.017a17.524,17.524,0,0,1,1.42-6.909,18.044,18.044,0,0,1,4.018-5.8,17.668,17.668,0,0,1,29.816,12.709h13.745a3.426,3.426,0,0,1,1.45.19,3.595,3.595,0,0,1,2.115,2,3.055,3.055,0,0,1,.272,1.462c.03.3,0,.628,0,.946v69.333c1.208,0,2.387-.024,3.535,0a3.425,3.425,0,0,1,2.115.755,3.5,3.5,0,0,1,1.239,1.894,3.584,3.584,0,0,1-.211,2.245,3.4,3.4,0,0,1-1.541,1.652,4.156,4.156,0,0,1-1.873.456q-38.517.036-76.973,0a3.541,3.541,0,0,1-1.42-.2,3.311,3.311,0,0,1-1.208-.743A3.6,3.6,0,0,1,1089,495.05a3.673,3.673,0,0,1,.272-1.4,4.234,4.234,0,0,1,.816-1.169,3.6,3.6,0,0,1,1.208-.749,3.545,3.545,0,0,1,1.42-.211C1093.773,491.513,1094.861,491.54,1096.039,491.54Zm35.164-87.981a14.027,14.027,0,0,0-12.959,8.673,14.014,14.014,0,0,0,3.021,15.3,14.07,14.07,0,0,0,21.63-2.1,14.085,14.085,0,0,0,1.329-13.2,13.559,13.559,0,0,0-3.051-4.58,13.71,13.71,0,0,0-4.562-3.051A13.961,13.961,0,0,0,1131.2,403.558Zm-10.513,87.93h21.086V470.481H1120.69Zm-14.048-56.213v10.416h10.483V435.275Zm19.334,10.434h10.452V435.293h-10.452Zm29.817.021V435.284H1145.34V445.73Zm-38.7,17.57V452.86h-10.453V463.3Zm19.334,0V452.848h-10.452V463.3Zm19.394-10.452H1145.34v10.437h10.483Z" transform="translate(0 0)" fill="#01357e"/>
    <path id="Path_12581" data-name="Path 12581" d="M1112.349,401.178a14.121,14.121,0,0,1,7.825,2.365,14.129,14.129,0,0,1,5.981,14.434,14.064,14.064,0,0,1-25.5,5.024,13.853,13.853,0,0,1-2.326-7.818,13.164,13.164,0,0,1,1.058-5.374,13.877,13.877,0,0,1,3.021-4.553,14.391,14.391,0,0,1,4.561-3.033A14.087,14.087,0,0,1,1112.349,401.178Zm2.689,22.744v-6.084h6.042v-5.287h-6.1v-6.081h-5.286v6.139h-6.042v5.253h6.072v6.066Z" transform="translate(18.854 2.38)" fill="#f4f7fd"/>
    <path id="Path_12582" data-name="Path 12582" d="M1099.49,444.339V423.331h21.086v21.008Z" transform="translate(21.199 47.15)" fill="#f4f7fd"/>
    <path id="Path_12583" data-name="Path 12583" d="M1094.84,411.677h10.483v10.416H1094.84Z" transform="translate(11.802 23.598)" fill="#f4f7fd"/>
    <path id="Path_12584" data-name="Path 12584" d="M1101.24,422.1V411.683h10.452V422.1Z" transform="translate(24.736 23.61)" fill="#f4f7fd"/>
    <path id="Path_12585" data-name="Path 12585" d="M1118.1,422.126H1107.65V411.68H1118.1Z" transform="translate(37.69 23.604)" fill="#f4f7fd"/>
    <path id="Path_12586" data-name="Path 12586" d="M1105.323,427.938H1094.84V417.5h10.483Z" transform="translate(11.802 35.362)" fill="#f4f7fd"/>
    <path id="Path_12587" data-name="Path 12587" d="M1111.7,427.945H1101.25V417.493H1111.7Z" transform="translate(24.756 35.352)" fill="#f4f7fd"/>
    <path id="Path_12588" data-name="Path 12588" d="M1118.133,417.493V427.93H1107.65V417.493Z" transform="translate(37.69 35.352)" fill="#f4f7fd"/>
    <path id="Path_12589" data-name="Path 12589" d="M1111.479,420.386h-5.317V414.32h-6.072v-5.254h6.042v-6.138h5.256v6.081h6.132V414.3h-6.042Z" transform="translate(22.412 5.917)" fill="#01357e"/>
  </g>
</svg>
